<mxfile host="65bd71144e" scale="1.2" border="0">
    <diagram id="Aivqml-ADPJbA_GyeIOO" name="Page-1">
        <mxGraphModel dx="1118" dy="423" grid="1" gridSize="10" guides="1" tooltips="1" connect="1" arrows="1" fold="1" page="1" pageScale="1" pageWidth="827" pageHeight="1169" background="#FFFFFF" math="0" shadow="0">
            <root>
                <mxCell id="0"/>
                <mxCell id="1" parent="0"/>
                <mxCell id="376" value="" style="edgeStyle=orthogonalEdgeStyle;rounded=0;orthogonalLoop=1;jettySize=auto;html=1;fillColor=#FFFFFF;strokeColor=#000000;fontColor=#000000;labelBackgroundColor=none;" parent="1" source="377" target="379" edge="1">
                    <mxGeometry relative="1" as="geometry"/>
                </mxCell>
                <mxCell id="377" value="start" style="ellipse;whiteSpace=wrap;html=1;fillColor=#E6FFCC;fontSize=11;strokeColor=#000000;fontColor=#000000;rounded=0;labelBackgroundColor=none;endArrow=classic;" parent="1" vertex="1">
                    <mxGeometry x="70" y="50" width="80" height="40" as="geometry"/>
                </mxCell>
                <mxCell id="378" value="" style="edgeStyle=orthogonalEdgeStyle;rounded=0;orthogonalLoop=1;jettySize=auto;html=1;fillColor=#FFFFFF;strokeColor=#000000;fontColor=#000000;labelBackgroundColor=none;" parent="1" source="379" target="381" edge="1">
                    <mxGeometry relative="1" as="geometry"/>
                </mxCell>
                <mxCell id="379" value="MatrixA = CreateRandomMatrix[3,5]" style="shape=process;whiteSpace=wrap;html=1;backgroundOutline=1;size=0.045454545454545456;fillColor=#CCE5FF;fontSize=11;strokeColor=#000000;fontColor=#000000;rounded=0;labelBackgroundColor=none;endArrow=classic;" parent="1" vertex="1">
                    <mxGeometry x="30" y="120" width="160" height="40" as="geometry"/>
                </mxCell>
                <mxCell id="380" value="" style="edgeStyle=orthogonalEdgeStyle;rounded=0;orthogonalLoop=1;jettySize=auto;html=1;fillColor=#FFFFFF;strokeColor=#000000;fontColor=#000000;labelBackgroundColor=none;" parent="1" source="381" target="383" edge="1">
                    <mxGeometry relative="1" as="geometry"/>
                </mxCell>
                <mxCell id="381" value="MatrixB = CreateRandomMatrix[5, 2]" style="shape=process;whiteSpace=wrap;html=1;backgroundOutline=1;size=0.045454545454545456;fillColor=#CCE5FF;fontSize=11;strokeColor=#000000;fontColor=#000000;rounded=0;labelBackgroundColor=none;endArrow=classic;" parent="1" vertex="1">
                    <mxGeometry x="30" y="200" width="160" height="40" as="geometry"/>
                </mxCell>
                <mxCell id="382" value="" style="edgeStyle=orthogonalEdgeStyle;rounded=0;orthogonalLoop=1;jettySize=auto;html=1;fillColor=#FFFFFF;strokeColor=#000000;fontColor=#000000;labelBackgroundColor=none;" parent="1" source="383" target="385" edge="1">
                    <mxGeometry relative="1" as="geometry"/>
                </mxCell>
                <mxCell id="383" value="PrintMatrix&lt;br&gt;(MatrixA)" style="shape=process;whiteSpace=wrap;html=1;backgroundOutline=1;size=0.045454545454545456;fillColor=#CCE5FF;fontSize=11;strokeColor=#000000;fontColor=#000000;rounded=0;labelBackgroundColor=none;endArrow=classic;" parent="1" vertex="1">
                    <mxGeometry x="30" y="280" width="160" height="40" as="geometry"/>
                </mxCell>
                <mxCell id="384" value="" style="edgeStyle=orthogonalEdgeStyle;rounded=0;orthogonalLoop=1;jettySize=auto;html=1;fillColor=#FFFFFF;strokeColor=#000000;fontColor=#000000;labelBackgroundColor=none;" parent="1" source="385" target="390" edge="1">
                    <mxGeometry relative="1" as="geometry"/>
                </mxCell>
                <mxCell id="385" value="PrintMatrix&lt;br&gt;(MatrixB)" style="shape=process;whiteSpace=wrap;html=1;backgroundOutline=1;size=0.045454545454545456;fillColor=#CCE5FF;fontSize=11;strokeColor=#000000;fontColor=#000000;rounded=0;labelBackgroundColor=none;endArrow=classic;" parent="1" vertex="1">
                    <mxGeometry x="30" y="360" width="160" height="40" as="geometry"/>
                </mxCell>
                <mxCell id="386" value="" style="edgeStyle=orthogonalEdgeStyle;rounded=0;orthogonalLoop=1;jettySize=auto;html=1;fillColor=#FFFFFF;strokeColor=#000000;fontColor=#000000;labelBackgroundColor=none;" parent="1" source="390" target="392" edge="1">
                    <mxGeometry relative="1" as="geometry"/>
                </mxCell>
                <mxCell id="387" value="YES" style="edgeLabel;html=1;align=center;verticalAlign=middle;resizable=0;points=[];labelBackgroundColor=#FFFFFF;fontColor=#000000;" parent="386" vertex="1" connectable="0">
                    <mxGeometry x="-0.7028" y="-1" relative="1" as="geometry">
                        <mxPoint x="1" y="4" as="offset"/>
                    </mxGeometry>
                </mxCell>
                <mxCell id="388" style="rounded=0;orthogonalLoop=1;jettySize=auto;html=1;exitX=1;exitY=0.5;exitDx=0;exitDy=0;entryX=0.5;entryY=0;entryDx=0;entryDy=0;fillColor=#FFFFFF;strokeColor=#000000;fontColor=#000000;labelBackgroundColor=none;" parent="1" source="390" target="396" edge="1">
                    <mxGeometry relative="1" as="geometry">
                        <Array as="points">
                            <mxPoint x="260" y="470"/>
                        </Array>
                    </mxGeometry>
                </mxCell>
                <mxCell id="389" value="NO" style="edgeLabel;html=1;align=center;verticalAlign=middle;resizable=0;points=[];labelBackgroundColor=#FFFFFF;fontColor=#000000;" parent="388" vertex="1" connectable="0">
                    <mxGeometry x="-0.7292" y="-1" relative="1" as="geometry">
                        <mxPoint x="-2" y="-1" as="offset"/>
                    </mxGeometry>
                </mxCell>
                <mxCell id="390" value="Columns(MatrixA)&lt;br&gt;!=&lt;br&gt;Rows(MatrixB)" style="rhombus;whiteSpace=wrap;html=1;fillColor=#FFFFFF;fontSize=11;strokeColor=#000000;fontColor=#000000;rounded=0;labelBackgroundColor=none;endArrow=classic;" parent="1" vertex="1">
                    <mxGeometry x="10" y="420" width="200" height="100" as="geometry"/>
                </mxCell>
                <mxCell id="391" value="" style="edgeStyle=orthogonalEdgeStyle;rounded=0;orthogonalLoop=1;jettySize=auto;html=1;fillColor=#FFFFFF;strokeColor=#000000;fontColor=#000000;labelBackgroundColor=none;" parent="1" source="392" target="394" edge="1">
                    <mxGeometry relative="1" as="geometry"/>
                </mxCell>
                <mxCell id="392" value="MatrixC =&amp;nbsp;&lt;br&gt;GetMatrixProduct&lt;br&gt;(MatrixA, MatrixB)" style="shape=process;whiteSpace=wrap;html=1;backgroundOutline=1;size=0.045454545454545456;fillColor=#CCE5FF;fontSize=11;strokeColor=#000000;fontColor=#000000;rounded=0;labelBackgroundColor=none;endArrow=classic;" parent="1" vertex="1">
                    <mxGeometry x="30" y="550" width="160" height="60" as="geometry"/>
                </mxCell>
                <mxCell id="393" value="" style="edgeStyle=none;rounded=0;orthogonalLoop=1;jettySize=auto;html=1;fillColor=#FFFFFF;strokeColor=#000000;fontColor=#000000;labelBackgroundColor=none;" parent="1" source="394" target="397" edge="1">
                    <mxGeometry relative="1" as="geometry"/>
                </mxCell>
                <mxCell id="394" value="PrintMatrix&lt;br&gt;(MatrixC)" style="shape=process;whiteSpace=wrap;html=1;backgroundOutline=1;size=0.045454545454545456;fillColor=#CCE5FF;fontSize=11;strokeColor=#000000;fontColor=#000000;rounded=0;labelBackgroundColor=none;endArrow=classic;" parent="1" vertex="1">
                    <mxGeometry x="30" y="650" width="160" height="40" as="geometry"/>
                </mxCell>
                <mxCell id="395" style="edgeStyle=none;rounded=0;orthogonalLoop=1;jettySize=auto;html=1;exitX=0.5;exitY=0.8;exitDx=0;exitDy=0;entryX=1;entryY=0.5;entryDx=0;entryDy=0;exitPerimeter=0;fillColor=#FFFFFF;strokeColor=#000000;fontColor=#000000;labelBackgroundColor=none;" parent="1" source="396" target="397" edge="1">
                    <mxGeometry relative="1" as="geometry">
                        <Array as="points">
                            <mxPoint x="260" y="630"/>
                        </Array>
                    </mxGeometry>
                </mxCell>
                <mxCell id="396" value="Умножение невозможно" style="shape=document;whiteSpace=wrap;html=1;boundedLbl=1;fillColor=#FFFFCC;fontSize=11;strokeColor=#000000;fontColor=#000000;rounded=0;labelBackgroundColor=none;endArrow=classic;" parent="1" vertex="1">
                    <mxGeometry x="200" y="550" width="120" height="50" as="geometry"/>
                </mxCell>
                <mxCell id="397" value="start" style="ellipse;whiteSpace=wrap;html=1;fillColor=#FFE6CC;fontSize=11;strokeColor=#000000;fontColor=#000000;rounded=0;labelBackgroundColor=none;endArrow=classic;" parent="1" vertex="1">
                    <mxGeometry x="70" y="730" width="80" height="40" as="geometry"/>
                </mxCell>
                <mxCell id="398" value="CreateRandomMatrix" style="shape=process;whiteSpace=wrap;html=1;backgroundOutline=1;fontSize=11;size=0.05;fillColor=#CCE5FF;rounded=0;strokeColor=#000000;fontColor=#000000;labelBackgroundColor=none;endArrow=classic;" parent="1" vertex="1">
                    <mxGeometry x="280" y="10" width="180" height="30" as="geometry"/>
                </mxCell>
                <mxCell id="399" style="edgeStyle=none;orthogonalLoop=1;jettySize=auto;html=1;entryX=0.5;entryY=0;entryDx=0;entryDy=0;fontSize=11;endArrow=classic;endFill=1;rounded=0;fillColor=#FFFFFF;strokeColor=#000000;fontColor=#000000;labelBackgroundColor=none;" parent="1" source="400" target="402" edge="1">
                    <mxGeometry relative="1" as="geometry"/>
                </mxCell>
                <mxCell id="400" value="start" style="ellipse;whiteSpace=wrap;html=1;fillColor=#E6FFCC;rounded=0;fontSize=11;strokeColor=#000000;fontColor=#000000;labelBackgroundColor=none;endArrow=classic;" parent="1" vertex="1">
                    <mxGeometry x="330" y="50" width="80" height="40" as="geometry"/>
                </mxCell>
                <mxCell id="401" value="" style="edgeStyle=none;orthogonalLoop=1;jettySize=auto;html=1;fontSize=11;rounded=0;entryX=0.5;entryY=0;entryDx=0;entryDy=0;fillColor=#FFFFFF;strokeColor=#000000;fontColor=#000000;labelBackgroundColor=none;" parent="1" source="402" target="405" edge="1">
                    <mxGeometry relative="1" as="geometry">
                        <mxPoint x="370" y="165" as="targetPoint"/>
                    </mxGeometry>
                </mxCell>
                <mxCell id="402" value="rows, columns, limit" style="shape=parallelogram;perimeter=parallelogramPerimeter;whiteSpace=wrap;html=1;fixedSize=1;fontSize=11;fillColor=#FFFFCC;rounded=0;strokeColor=#000000;fontColor=#000000;labelBackgroundColor=none;endArrow=classic;" parent="1" vertex="1">
                    <mxGeometry x="300" y="110" width="140" height="32.5" as="geometry"/>
                </mxCell>
                <mxCell id="403" value="" style="edgeStyle=none;orthogonalLoop=1;jettySize=auto;html=1;fontSize=11;rounded=0;entryX=0.5;entryY=0;entryDx=0;entryDy=0;fillColor=#FFFFFF;strokeColor=#000000;fontColor=#000000;labelBackgroundColor=none;" parent="1" source="405" target="408" edge="1">
                    <mxGeometry relative="1" as="geometry">
                        <mxPoint x="370" y="239.9999999999999" as="targetPoint"/>
                    </mxGeometry>
                </mxCell>
                <mxCell id="404" style="edgeStyle=none;orthogonalLoop=1;jettySize=auto;html=1;exitX=1;exitY=0.5;exitDx=0;exitDy=0;fontSize=11;endArrow=classic;endFill=1;entryX=0.5;entryY=0;entryDx=0;entryDy=0;rounded=0;fillColor=#FFFFFF;strokeColor=#000000;fontColor=#000000;labelBackgroundColor=none;" parent="1" source="405" target="413" edge="1">
                    <mxGeometry relative="1" as="geometry">
                        <mxPoint x="540" y="220" as="targetPoint"/>
                        <Array as="points">
                            <mxPoint x="530" y="190"/>
                        </Array>
                    </mxGeometry>
                </mxCell>
                <mxCell id="405" value="i = 0, rows - 1, 1" style="shape=hexagon;perimeter=hexagonPerimeter2;whiteSpace=wrap;html=1;fixedSize=1;fontSize=11;rounded=0;fillColor=#FFFFFF;strokeColor=#000000;fontColor=#000000;labelBackgroundColor=none;endArrow=classic;" parent="1" vertex="1">
                    <mxGeometry x="300" y="170" width="140" height="40" as="geometry"/>
                </mxCell>
                <mxCell id="406" style="edgeStyle=none;orthogonalLoop=1;jettySize=auto;html=1;exitX=1;exitY=0.5;exitDx=0;exitDy=0;fontSize=11;endArrow=classic;endFill=1;entryX=0;entryY=0.5;entryDx=0;entryDy=0;rounded=0;fillColor=#FFFFFF;strokeColor=#000000;fontColor=#000000;labelBackgroundColor=none;" parent="1" source="408" target="405" edge="1">
                    <mxGeometry relative="1" as="geometry">
                        <mxPoint x="370" y="490" as="targetPoint"/>
                        <Array as="points">
                            <mxPoint x="470" y="260"/>
                            <mxPoint x="470" y="390"/>
                            <mxPoint x="370" y="390"/>
                            <mxPoint x="250" y="390"/>
                            <mxPoint x="250" y="190"/>
                        </Array>
                    </mxGeometry>
                </mxCell>
                <mxCell id="407" value="" style="edgeStyle=none;rounded=0;orthogonalLoop=1;jettySize=auto;html=1;fillColor=#FFFFFF;strokeColor=#000000;fontColor=#000000;labelBackgroundColor=none;" parent="1" source="408" target="410" edge="1">
                    <mxGeometry relative="1" as="geometry"/>
                </mxCell>
                <mxCell id="408" value="j = 0, columns - 1, 1" style="shape=hexagon;perimeter=hexagonPerimeter2;whiteSpace=wrap;html=1;fixedSize=1;fontSize=11;rounded=0;fillColor=#FFFFFF;strokeColor=#000000;fontColor=#000000;labelBackgroundColor=none;endArrow=classic;" parent="1" vertex="1">
                    <mxGeometry x="300" y="240" width="140" height="40" as="geometry"/>
                </mxCell>
                <mxCell id="409" style="edgeStyle=none;orthogonalLoop=1;jettySize=auto;html=1;exitX=0.5;exitY=1;exitDx=0;exitDy=0;entryX=0;entryY=0.5;entryDx=0;entryDy=0;fontSize=11;rounded=0;fillColor=#FFFFFF;strokeColor=#000000;fontColor=#000000;labelBackgroundColor=none;" parent="1" source="410" target="408" edge="1">
                    <mxGeometry relative="1" as="geometry">
                        <Array as="points">
                            <mxPoint x="370" y="370"/>
                            <mxPoint x="270" y="370"/>
                            <mxPoint x="270" y="260"/>
                        </Array>
                    </mxGeometry>
                </mxCell>
                <mxCell id="410" value="matrix[i,j] = Random(0,limit)" style="whiteSpace=wrap;html=1;rounded=0;fontSize=11;fillColor=#FFFFFF;strokeColor=#000000;fontColor=#000000;labelBackgroundColor=none;endArrow=classic;" parent="1" vertex="1">
                    <mxGeometry x="290" y="311.25" width="160" height="37.5" as="geometry"/>
                </mxCell>
                <mxCell id="411" value="end" style="ellipse;whiteSpace=wrap;html=1;fillColor=#FFE6CC;rounded=0;fontSize=11;strokeColor=#000000;fontColor=#000000;labelBackgroundColor=none;endArrow=classic;" parent="1" vertex="1">
                    <mxGeometry x="490" y="270" width="80" height="40" as="geometry"/>
                </mxCell>
                <mxCell id="412" value="" style="edgeStyle=none;rounded=0;orthogonalLoop=1;jettySize=auto;html=1;fillColor=#FFFFFF;strokeColor=#000000;fontColor=#000000;labelBackgroundColor=none;" parent="1" source="413" target="411" edge="1">
                    <mxGeometry relative="1" as="geometry"/>
                </mxCell>
                <mxCell id="413" value="matrix" style="shape=parallelogram;perimeter=parallelogramPerimeter;whiteSpace=wrap;html=1;fixedSize=1;fontSize=11;fillColor=#FFFFCC;rounded=0;strokeColor=#000000;fontColor=#000000;labelBackgroundColor=none;endArrow=classic;" parent="1" vertex="1">
                    <mxGeometry x="460" y="210" width="140" height="32.5" as="geometry"/>
                </mxCell>
                <mxCell id="414" value="PrintMatrix" style="shape=process;whiteSpace=wrap;html=1;backgroundOutline=1;fontSize=11;size=0.05;fillColor=#CCE5FF;rounded=0;strokeColor=#000000;fontColor=#000000;labelBackgroundColor=none;endArrow=classic;" parent="1" vertex="1">
                    <mxGeometry x="650" y="10" width="180" height="30" as="geometry"/>
                </mxCell>
                <mxCell id="415" style="edgeStyle=none;orthogonalLoop=1;jettySize=auto;html=1;entryX=0.5;entryY=0;entryDx=0;entryDy=0;fontSize=11;endArrow=classic;endFill=1;rounded=0;fillColor=#FFFFFF;strokeColor=#000000;fontColor=#000000;labelBackgroundColor=none;" parent="1" source="416" target="418" edge="1">
                    <mxGeometry relative="1" as="geometry"/>
                </mxCell>
                <mxCell id="416" value="start" style="ellipse;whiteSpace=wrap;html=1;fillColor=#E6FFCC;rounded=0;fontSize=11;strokeColor=#000000;fontColor=#000000;labelBackgroundColor=none;endArrow=classic;" parent="1" vertex="1">
                    <mxGeometry x="700" y="50" width="80" height="40" as="geometry"/>
                </mxCell>
                <mxCell id="417" value="" style="edgeStyle=none;orthogonalLoop=1;jettySize=auto;html=1;fontSize=11;rounded=0;entryX=0.5;entryY=0;entryDx=0;entryDy=0;fillColor=#FFFFFF;strokeColor=#000000;fontColor=#000000;labelBackgroundColor=none;" parent="1" source="418" target="426" edge="1">
                    <mxGeometry relative="1" as="geometry">
                        <mxPoint x="740" y="165" as="targetPoint"/>
                    </mxGeometry>
                </mxCell>
                <mxCell id="418" value="matrix" style="shape=parallelogram;perimeter=parallelogramPerimeter;whiteSpace=wrap;html=1;fixedSize=1;fontSize=11;fillColor=#FFFFCC;rounded=0;strokeColor=#000000;fontColor=#000000;labelBackgroundColor=none;endArrow=classic;" parent="1" vertex="1">
                    <mxGeometry x="670" y="110" width="140" height="32.5" as="geometry"/>
                </mxCell>
                <mxCell id="419" value="" style="edgeStyle=none;orthogonalLoop=1;jettySize=auto;html=1;fontSize=11;rounded=0;entryX=0.5;entryY=0;entryDx=0;entryDy=0;fillColor=#FFFFFF;strokeColor=#000000;fontColor=#000000;labelBackgroundColor=none;" parent="1" source="420" target="423" edge="1">
                    <mxGeometry relative="1" as="geometry">
                        <mxPoint x="740" y="312.4999999999999" as="targetPoint"/>
                    </mxGeometry>
                </mxCell>
                <mxCell id="450" style="edgeStyle=none;html=1;exitX=1;exitY=0.5;exitDx=0;exitDy=0;entryX=0.5;entryY=0;entryDx=0;entryDy=0;fontColor=#000000;fillColor=#FFFFFF;strokeColor=#000000;rounded=0;labelBackgroundColor=none;" parent="1" source="420" target="449" edge="1">
                    <mxGeometry relative="1" as="geometry">
                        <Array as="points">
                            <mxPoint x="860" y="263"/>
                        </Array>
                    </mxGeometry>
                </mxCell>
                <mxCell id="420" value="i = 0, rows - 1, 1" style="shape=hexagon;perimeter=hexagonPerimeter2;whiteSpace=wrap;html=1;fixedSize=1;fontSize=11;rounded=0;fillColor=#FFFFFF;strokeColor=#000000;fontColor=#000000;labelBackgroundColor=none;endArrow=classic;" parent="1" vertex="1">
                    <mxGeometry x="670" y="242.5" width="140" height="40" as="geometry"/>
                </mxCell>
                <mxCell id="421" style="edgeStyle=none;orthogonalLoop=1;jettySize=auto;html=1;exitX=1;exitY=0.5;exitDx=0;exitDy=0;fontSize=11;endArrow=classic;endFill=1;entryX=0;entryY=0.5;entryDx=0;entryDy=0;rounded=0;fillColor=#FFFFFF;strokeColor=#000000;fontColor=#000000;labelBackgroundColor=none;" parent="1" source="423" target="420" edge="1">
                    <mxGeometry relative="1" as="geometry">
                        <mxPoint x="740" y="562.5" as="targetPoint"/>
                        <Array as="points">
                            <mxPoint x="840" y="332.5"/>
                            <mxPoint x="840" y="462.5"/>
                            <mxPoint x="740" y="462.5"/>
                            <mxPoint x="620" y="462.5"/>
                            <mxPoint x="620" y="262.5"/>
                        </Array>
                    </mxGeometry>
                </mxCell>
                <mxCell id="422" value="" style="edgeStyle=none;rounded=0;orthogonalLoop=1;jettySize=auto;html=1;entryX=0.5;entryY=0;entryDx=0;entryDy=0;fillColor=#FFFFFF;strokeColor=#000000;fontColor=#000000;labelBackgroundColor=none;" parent="1" source="423" target="427" edge="1">
                    <mxGeometry relative="1" as="geometry">
                        <mxPoint x="740" y="370" as="targetPoint"/>
                    </mxGeometry>
                </mxCell>
                <mxCell id="423" value="j = 0, columns - 1, 1" style="shape=hexagon;perimeter=hexagonPerimeter2;whiteSpace=wrap;html=1;fixedSize=1;fontSize=11;rounded=0;fillColor=#FFFFFF;strokeColor=#000000;fontColor=#000000;labelBackgroundColor=none;endArrow=classic;" parent="1" vertex="1">
                    <mxGeometry x="670" y="312.5" width="140" height="40" as="geometry"/>
                </mxCell>
                <mxCell id="424" style="edgeStyle=none;orthogonalLoop=1;jettySize=auto;html=1;exitX=0.495;exitY=0.864;exitDx=0;exitDy=0;entryX=0;entryY=0.5;entryDx=0;entryDy=0;fontSize=11;rounded=0;exitPerimeter=0;fillColor=#FFFFFF;strokeColor=#000000;fontColor=#000000;labelBackgroundColor=none;" parent="1" source="427" target="423" edge="1">
                    <mxGeometry relative="1" as="geometry">
                        <Array as="points">
                            <mxPoint x="740" y="442.5"/>
                            <mxPoint x="640" y="442.5"/>
                            <mxPoint x="640" y="332.5"/>
                        </Array>
                        <mxPoint x="740" y="421.25" as="sourcePoint"/>
                    </mxGeometry>
                </mxCell>
                <mxCell id="425" value="" style="edgeStyle=none;rounded=0;orthogonalLoop=1;jettySize=auto;html=1;entryX=0.5;entryY=0;entryDx=0;entryDy=0;fillColor=#FFFFFF;strokeColor=#000000;fontColor=#000000;labelBackgroundColor=none;" parent="1" source="426" target="420" edge="1">
                    <mxGeometry relative="1" as="geometry">
                        <mxPoint x="800" y="240" as="targetPoint"/>
                    </mxGeometry>
                </mxCell>
                <mxCell id="426" value="rows = Rows(matrix)&lt;br&gt;columns = Columns(matrix)&amp;nbsp;" style="whiteSpace=wrap;html=1;rounded=0;fontSize=11;fillColor=#FFFFFF;strokeColor=#000000;fontColor=#000000;labelBackgroundColor=none;endArrow=classic;" parent="1" vertex="1">
                    <mxGeometry x="660" y="172.5" width="160" height="37.5" as="geometry"/>
                </mxCell>
                <mxCell id="427" value="matrix[i,j]" style="shape=document;whiteSpace=wrap;html=1;boundedLbl=1;fillColor=#FFFFFF;fontSize=11;strokeColor=#000000;fontColor=#000000;rounded=0;labelBackgroundColor=none;endArrow=classic;" parent="1" vertex="1">
                    <mxGeometry x="680" y="380" width="120" height="50" as="geometry"/>
                </mxCell>
                <mxCell id="428" value="GetMAtrixProduct" style="shape=process;whiteSpace=wrap;html=1;backgroundOutline=1;fontSize=11;size=0.05;fillColor=#CCE5FF;rounded=0;strokeColor=#000000;fontColor=#000000;labelBackgroundColor=none;endArrow=classic;" parent="1" vertex="1">
                    <mxGeometry x="990" y="10" width="180" height="30" as="geometry"/>
                </mxCell>
                <mxCell id="429" style="edgeStyle=none;orthogonalLoop=1;jettySize=auto;html=1;entryX=0.5;entryY=0;entryDx=0;entryDy=0;fontSize=11;endArrow=classic;endFill=1;rounded=0;fillColor=#FFFFFF;strokeColor=#000000;fontColor=#000000;labelBackgroundColor=none;" parent="1" source="430" target="432" edge="1">
                    <mxGeometry relative="1" as="geometry"/>
                </mxCell>
                <mxCell id="430" value="start" style="ellipse;whiteSpace=wrap;html=1;fillColor=#E6FFCC;rounded=0;fontSize=11;strokeColor=#000000;fontColor=#000000;labelBackgroundColor=none;endArrow=classic;" parent="1" vertex="1">
                    <mxGeometry x="1040" y="50" width="80" height="40" as="geometry"/>
                </mxCell>
                <mxCell id="431" value="" style="edgeStyle=none;orthogonalLoop=1;jettySize=auto;html=1;fontSize=11;rounded=0;entryX=0.5;entryY=0;entryDx=0;entryDy=0;fillColor=#FFFFFF;strokeColor=#000000;fontColor=#000000;labelBackgroundColor=none;" parent="1" source="432" target="439" edge="1">
                    <mxGeometry relative="1" as="geometry">
                        <mxPoint x="1080" y="165" as="targetPoint"/>
                    </mxGeometry>
                </mxCell>
                <mxCell id="432" value="matrixA&lt;br&gt;matrixB" style="shape=parallelogram;perimeter=parallelogramPerimeter;whiteSpace=wrap;html=1;fixedSize=1;fontSize=11;fillColor=#FFFFCC;rounded=0;strokeColor=#000000;fontColor=#000000;labelBackgroundColor=none;endArrow=classic;" parent="1" vertex="1">
                    <mxGeometry x="1010" y="110" width="140" height="32.5" as="geometry"/>
                </mxCell>
                <mxCell id="433" value="" style="edgeStyle=none;orthogonalLoop=1;jettySize=auto;html=1;fontSize=11;rounded=0;entryX=0.5;entryY=0;entryDx=0;entryDy=0;fillColor=#FFFFFF;strokeColor=#000000;fontColor=#000000;labelBackgroundColor=none;" parent="1" source="434" target="437" edge="1">
                    <mxGeometry relative="1" as="geometry">
                        <mxPoint x="1080" y="312.4999999999999" as="targetPoint"/>
                    </mxGeometry>
                </mxCell>
                <mxCell id="434" value="i = 0, rowsA - 1, 1" style="shape=hexagon;perimeter=hexagonPerimeter2;whiteSpace=wrap;html=1;fixedSize=1;fontSize=11;rounded=0;fillColor=#FFFFFF;strokeColor=#000000;fontColor=#000000;labelBackgroundColor=none;endArrow=classic;" parent="1" vertex="1">
                    <mxGeometry x="1010" y="242.5" width="140" height="40" as="geometry"/>
                </mxCell>
                <mxCell id="435" style="edgeStyle=none;orthogonalLoop=1;jettySize=auto;html=1;exitX=1;exitY=0.5;exitDx=0;exitDy=0;fontSize=11;endArrow=classic;endFill=1;entryX=0;entryY=0.5;entryDx=0;entryDy=0;rounded=0;fillColor=#FFFFFF;strokeColor=#000000;fontColor=#000000;labelBackgroundColor=none;" parent="1" source="437" target="434" edge="1">
                    <mxGeometry relative="1" as="geometry">
                        <mxPoint x="1080" y="562.5" as="targetPoint"/>
                        <Array as="points">
                            <mxPoint x="1210" y="332"/>
                            <mxPoint x="1210" y="570"/>
                            <mxPoint x="920" y="570"/>
                            <mxPoint x="920" y="263"/>
                        </Array>
                    </mxGeometry>
                </mxCell>
                <mxCell id="436" value="" style="edgeStyle=none;rounded=0;orthogonalLoop=1;jettySize=auto;html=1;entryX=0.5;entryY=0;entryDx=0;entryDy=0;fillColor=#FFFFFF;strokeColor=#000000;fontColor=#000000;labelBackgroundColor=none;" parent="1" source="437" target="442" edge="1">
                    <mxGeometry relative="1" as="geometry">
                        <mxPoint x="1080" y="380" as="targetPoint"/>
                    </mxGeometry>
                </mxCell>
                <mxCell id="437" value="j = 0, columnsB - 1, 1" style="shape=hexagon;perimeter=hexagonPerimeter2;whiteSpace=wrap;html=1;fixedSize=1;fontSize=11;rounded=0;fillColor=#FFFFFF;strokeColor=#000000;fontColor=#000000;labelBackgroundColor=none;endArrow=classic;" parent="1" vertex="1">
                    <mxGeometry x="1010" y="312.5" width="140" height="40" as="geometry"/>
                </mxCell>
                <mxCell id="438" value="" style="edgeStyle=none;rounded=0;orthogonalLoop=1;jettySize=auto;html=1;entryX=0.5;entryY=0;entryDx=0;entryDy=0;fillColor=#FFFFFF;strokeColor=#000000;fontColor=#000000;labelBackgroundColor=none;" parent="1" source="439" target="434" edge="1">
                    <mxGeometry relative="1" as="geometry">
                        <mxPoint x="1140" y="240" as="targetPoint"/>
                    </mxGeometry>
                </mxCell>
                <mxCell id="439" value="rowsA = Rows(matrixA)&lt;br&gt;columnsB = Columns(matrixB)&amp;nbsp;&lt;br&gt;columnsA = Columns(matrixA)" style="whiteSpace=wrap;html=1;rounded=0;fontSize=11;fillColor=#FFFFFF;strokeColor=#000000;fontColor=#000000;labelBackgroundColor=none;endArrow=classic;" parent="1" vertex="1">
                    <mxGeometry x="980" y="162.5" width="200" height="57.5" as="geometry"/>
                </mxCell>
                <mxCell id="440" value="" style="edgeStyle=none;rounded=0;orthogonalLoop=1;jettySize=auto;html=1;fillColor=#FFFFFF;strokeColor=#000000;fontColor=#000000;labelBackgroundColor=none;" parent="1" source="442" target="444" edge="1">
                    <mxGeometry relative="1" as="geometry"/>
                </mxCell>
                <mxCell id="441" style="edgeStyle=none;rounded=0;orthogonalLoop=1;jettySize=auto;html=1;exitX=1;exitY=0.5;exitDx=0;exitDy=0;entryX=0;entryY=0.5;entryDx=0;entryDy=0;fillColor=#FFFFFF;strokeColor=#000000;fontColor=#000000;labelBackgroundColor=none;" parent="1" source="442" target="437" edge="1">
                    <mxGeometry relative="1" as="geometry">
                        <mxPoint x="1170" y="440" as="targetPoint"/>
                        <Array as="points">
                            <mxPoint x="1190" y="400"/>
                            <mxPoint x="1190" y="550"/>
                            <mxPoint x="940" y="550"/>
                            <mxPoint x="940" y="333"/>
                        </Array>
                    </mxGeometry>
                </mxCell>
                <mxCell id="442" value="k = 0, columnsA - 1, 1" style="shape=hexagon;perimeter=hexagonPerimeter2;whiteSpace=wrap;html=1;fixedSize=1;fontSize=11;rounded=0;fillColor=#FFFFFF;strokeColor=#000000;fontColor=#000000;labelBackgroundColor=none;endArrow=classic;" parent="1" vertex="1">
                    <mxGeometry x="1010" y="380" width="140" height="40" as="geometry"/>
                </mxCell>
                <mxCell id="443" style="edgeStyle=none;rounded=0;orthogonalLoop=1;jettySize=auto;html=1;exitX=0.5;exitY=1;exitDx=0;exitDy=0;entryX=0;entryY=0.5;entryDx=0;entryDy=0;fillColor=#FFFFFF;strokeColor=#000000;fontColor=#000000;labelBackgroundColor=none;" parent="1" source="444" target="442" edge="1">
                    <mxGeometry relative="1" as="geometry">
                        <Array as="points">
                            <mxPoint x="1080" y="530"/>
                            <mxPoint x="960" y="530"/>
                            <mxPoint x="960" y="400"/>
                        </Array>
                    </mxGeometry>
                </mxCell>
                <mxCell id="444" value="matrixC[i, j] = matrixC[i, j] +&lt;br&gt;&amp;nbsp;matrixA[i, k] * matrixB[k, j];" style="whiteSpace=wrap;html=1;rounded=0;fontSize=11;fillColor=#FFFFFF;strokeColor=#000000;fontColor=#000000;labelBackgroundColor=none;endArrow=classic;" parent="1" vertex="1">
                    <mxGeometry x="980" y="450" width="200" height="57.5" as="geometry"/>
                </mxCell>
                <mxCell id="445" value="matrixC" style="shape=parallelogram;perimeter=parallelogramPerimeter;whiteSpace=wrap;html=1;fixedSize=1;fontSize=11;fillColor=#FFFFCC;rounded=0;strokeColor=#000000;fontColor=#000000;labelBackgroundColor=none;endArrow=classic;" parent="1" vertex="1">
                    <mxGeometry x="1210" y="280" width="140" height="32.5" as="geometry"/>
                </mxCell>
                <mxCell id="446" style="edgeStyle=none;orthogonalLoop=1;jettySize=auto;html=1;exitX=1;exitY=0.5;exitDx=0;exitDy=0;fontSize=11;endArrow=classic;endFill=1;entryX=0.5;entryY=0;entryDx=0;entryDy=0;rounded=0;fillColor=#FFFFFF;strokeColor=#000000;fontColor=#000000;labelBackgroundColor=none;" parent="1" source="434" target="445" edge="1">
                    <mxGeometry relative="1" as="geometry">
                        <mxPoint x="1290" y="290" as="targetPoint"/>
                        <Array as="points">
                            <mxPoint x="1280" y="263"/>
                        </Array>
                        <mxPoint x="1190" y="260" as="sourcePoint"/>
                    </mxGeometry>
                </mxCell>
                <mxCell id="447" value="end" style="ellipse;whiteSpace=wrap;html=1;fillColor=#FFE6CC;rounded=0;fontSize=11;strokeColor=#000000;fontColor=#000000;labelBackgroundColor=none;endArrow=classic;" parent="1" vertex="1">
                    <mxGeometry x="1240" y="340" width="80" height="40" as="geometry"/>
                </mxCell>
                <mxCell id="448" value="" style="edgeStyle=none;rounded=0;orthogonalLoop=1;jettySize=auto;html=1;fillColor=#FFFFFF;strokeColor=#000000;fontColor=#000000;labelBackgroundColor=none;" parent="1" source="445" target="447" edge="1">
                    <mxGeometry relative="1" as="geometry"/>
                </mxCell>
                <mxCell id="449" value="end" style="ellipse;whiteSpace=wrap;html=1;fillColor=#FFE6CC;rounded=0;fontSize=11;strokeColor=#000000;fontColor=#000000;labelBackgroundColor=none;endArrow=classic;" parent="1" vertex="1">
                    <mxGeometry x="820" y="276.25" width="80" height="40" as="geometry"/>
                </mxCell>
                <mxCell id="451" value="Найти произведение двух матриц" style="whiteSpace=wrap;html=1;rounded=0;fontSize=11;fillColor=#FFFFFF;strokeColor=#000000;fontColor=#000000;labelBackgroundColor=none;endArrow=classic;" vertex="1" parent="1">
                    <mxGeometry y="10" width="220" height="30" as="geometry"/>
                </mxCell>
            </root>
        </mxGraphModel>
    </diagram>
</mxfile>